<svg width="16" height="17" viewBox="0 0 16 17" fill="none" xmlns="http://www.w3.org/2000/svg">
<mask id="mask0" mask-type="alpha" maskUnits="userSpaceOnUse" x="0" y="1" width="11" height="15">
<path fill-rule="evenodd" clip-rule="evenodd" d="M0 1H11V5H3V16H0V1Z" fill="white"/>
</mask>
<g mask="url(#mask0)">
<path fill-rule="evenodd" clip-rule="evenodd" d="M4 2V1H8V2H11V14H1V2H4ZM5 2V3H7V2H5ZM3 5V12H9V5H3Z" fill="#AEB0B3"/>
</g>
<path d="M8.99078 16L4.15539 12.178C4.09481 12.1321 4.03687 12.0462 4.0158 11.9602C3.99473 11.8714 3.99473 11.7855 4.0158 11.6995L4.57414 9.85154L8.99078 16ZM6.05425 6.13553L7.15249 9.85154H4.57414L5.67501 6.13553C5.69344 6.04671 5.77245 6.00374 5.8541 6.00374C5.97261 5.98368 6.03318 6.04671 6.05425 6.13553ZM7.15249 9.85154H10.8264L8.99078 16L7.15249 9.85154ZM13.9842 11.7196C14.0053 11.8084 14.0053 11.8943 13.9842 11.9803C13.9631 12.0691 13.9052 12.1321 13.8446 12.198L8.99078 16L13.4048 9.85154L13.9842 11.7196ZM13.4048 9.85154H10.8475L11.9457 6.13553C11.9668 6.04671 12.0458 6.00374 12.1275 6.00374C12.2249 6.00374 12.2855 6.04671 12.3066 6.13553L13.4048 9.85154Z" fill="#FC7D25"/>
</svg>
